<svg width="62" height="40" viewBox="0 0 62 40" fill="none" xmlns="http://www.w3.org/2000/svg">
<rect y="0.625" width="62" height="38.75" rx="5" fill="#6B5AF9"/>
<g clip-path="url(#clip0_439_581)">
<path d="M40.7881 25.0058L37.9941 22.2118C36.9963 21.214 35.2999 21.6131 34.9008 22.9103C34.6014 23.8084 33.6036 24.3073 32.7055 24.1077C30.7099 23.6088 28.0157 21.0144 27.5167 18.9189C27.2174 18.0208 27.8161 17.023 28.7142 16.7237C30.0114 16.3245 30.4105 14.6282 29.4127 13.6303L26.6187 10.8364C25.8204 10.1379 24.623 10.1379 23.9245 10.8364L22.0286 12.7323C20.1327 14.728 22.2282 20.0165 26.918 24.7064C31.6079 29.3963 36.8965 31.5916 38.8922 29.5959L40.7881 27.7C41.4866 26.9017 41.4866 25.7043 40.7881 25.0058Z" fill="white"/>
</g>
<defs>
<clipPath id="clip0_439_581">
<rect width="20.0208" height="20.0208" fill="white" transform="translate(21.3125 10.3125)"/>
</clipPath>
</defs>
</svg>
